<svg viewBox="0 0 64 64">

    <path
        d="M0,0v64h64V0H0z M27,43.693c0,0.628-0.339,1.003-0.823,1.003c-0.172,0-0.362-0.047-0.561-0.147l-7.785-3.892C17.374,40.428,17,39.823,17,39.312V20.229c0-0.503,0.271-0.802,0.659-0.802c0.137,0,0.289,0.038,0.449,0.118l8.839,4.419C26.979,23.98,27,24.014,27,24.051V43.693z M28.433,35.958V26.32L37,40.241L28.433,35.958z M31.303,28.248l5.21-8.467c0.187-0.303,0.532-0.477,0.878-0.477c0.084,0,0.167,0.013,0.249,0.034c0.065,0.017,0.129,0.038,0.19,0.068l9.05,4.525l0.01,0.005c0.007,0.003,0.012,0.009,0.018,0.014c0.043,0.034,0.058,0.095,0.028,0.145l-9.095,14.779L31.303,28.248z M47,43.693c0,0.855-0.744,1.176-1.661,0.717l-7.052-3.526L47,26.726V43.693z" />
</svg>